<svg width="44" height="40" viewBox="0 0 44 40" fill="none" xmlns="http://www.w3.org/2000/svg">
<path d="M15.3306 38.3372H3.16532C2.50251 38.3361 1.86684 38.0723 1.3984 37.6033C0.929959 37.1344 0.666978 36.4988 0.666626 35.836V15.836C0.666978 15.1731 0.929959 14.5375 1.3984 14.0685C1.86684 13.5996 2.50251 13.3357 3.16532 13.3347H3.99865V10.8359C3.99848 10.7265 4.01935 10.6179 4.06116 10.5168C4.10297 10.4156 4.16473 10.3237 4.24215 10.2463C4.31956 10.1688 4.4118 10.1076 4.51299 10.0658C4.61416 10.0239 4.72251 10.0024 4.83199 10.0026H8.16532C8.27469 10.0026 8.38331 10.0242 8.48433 10.0661C8.58536 10.108 8.67659 10.1693 8.75387 10.2467C8.83115 10.3241 8.89312 10.416 8.93485 10.5171C8.97659 10.6182 8.99753 10.7266 8.99736 10.8359V13.3347H15.3306C16.1296 12.9091 16.9672 12.5604 17.832 12.2933V10.0026H15.3306C14.6674 10.0023 14.0314 9.73855 13.5625 9.26953C13.0934 8.80052 12.8297 8.16459 12.8294 7.50131V2.50131C12.8294 1.83791 13.0934 1.20168 13.5625 0.732584C14.0316 0.263493 14.6673 0 15.3306 0H28.664C29.3269 0.000706752 29.9625 0.264547 30.4309 0.733561C30.8994 1.20258 31.1628 1.83837 31.1628 2.50131V7.50131C31.1624 8.16413 30.8994 8.79977 30.4309 9.26872C29.9625 9.73765 29.3269 10.0015 28.664 10.0026H26.1628V12.2933C27.0277 12.5601 27.8653 12.9088 28.664 13.3347H34.9961V10.8359C34.9961 10.6149 35.0833 10.403 35.2396 10.2467C35.3958 10.0905 35.6084 10.0026 35.8294 10.0026H39.1628C39.2722 10.0024 39.3805 10.0239 39.4817 10.0658C39.5829 10.1076 39.6752 10.1688 39.7526 10.2463C39.83 10.3237 39.8917 10.4156 39.9336 10.5168C39.9754 10.6179 39.9962 10.7265 39.9961 10.8359V13.3347H40.8294C41.4925 13.3357 42.1274 13.5995 42.5964 14.0684C43.0652 14.5372 43.3297 15.1729 43.3306 15.836V35.836C43.3297 36.4991 43.0652 37.1347 42.5964 37.6035C42.1274 38.0724 41.4925 38.3361 40.8294 38.3372H28.664C26.6117 39.4299 24.3224 40.0013 21.9973 40.0013C19.6724 40.0013 17.383 39.4299 15.3306 38.3372ZM9.49736 25.8347C9.49709 28.3072 10.2294 30.7243 11.6028 32.7803C12.9763 34.8363 14.9293 36.4387 17.2136 37.3851C19.4977 38.3315 22.011 38.5795 24.4361 38.0973C26.8613 37.6152 29.0886 36.4248 30.8372 34.6765C32.5857 32.9284 33.7765 30.7012 34.259 28.2763C34.7417 25.8512 34.4954 23.3375 33.5494 21.0531C32.6034 18.7687 31.0009 16.8161 28.9453 15.4423C26.8896 14.0684 24.4725 13.3349 22 13.3347C18.6841 13.3347 15.5037 14.6516 13.1588 16.9959C10.8139 19.3403 9.49676 22.5201 9.49605 25.836L9.49736 25.8347ZM31.1276 36.6693H40.832C41.053 36.6693 41.2656 36.5815 41.4218 36.4251C41.5781 36.2688 41.6653 36.0569 41.6653 35.836V33.336H34.0182C33.234 34.5911 32.2596 35.7157 31.1276 36.6693ZM2.32808 35.836C2.32808 36.0569 2.41529 36.2688 2.57157 36.4251C2.72785 36.5815 2.9404 36.6693 3.16141 36.6693H12.8671C11.7353 35.7157 10.7596 34.5911 9.97523 33.336H2.32808V35.836ZM36.1628 25.836C36.163 27.8481 35.7352 29.8372 34.9088 31.6719H41.6614V20.0027H34.9088C35.7361 21.8361 36.1648 23.8244 36.1653 25.836H36.1628ZM2.32808 31.6719H9.08329C8.25603 29.8368 7.82808 27.8469 7.82808 25.834C7.82808 23.8211 8.25603 21.8311 9.08329 19.9959H2.32808V31.6719ZM34.0142 18.3385H41.6614V15.84C41.6614 15.6189 41.5742 15.4069 41.418 15.2507C41.2617 15.0944 41.0492 15.0067 40.8281 15.0067H31.1237C32.2552 15.9589 33.2313 17.0817 34.0169 18.3347L34.0142 18.3385ZM2.32808 15.84V18.3385H9.97523C10.7599 17.0837 11.7356 15.9591 12.8671 15.0052H3.16141C2.94187 15.0076 2.73204 15.096 2.57679 15.2513C2.42152 15.4065 2.33312 15.6164 2.33069 15.836L2.32808 15.84ZM36.664 13.336H38.3306V11.668H36.664V13.336ZM5.66272 13.336H7.32939V11.668H5.66272V13.336ZM24.4948 11.8919V10.0026H19.4948V11.8906C21.1481 11.5924 22.8414 11.5937 24.4948 11.8919ZM14.4948 2.50391V7.50391C14.4952 7.72504 14.583 7.93701 14.7396 8.09327C14.8961 8.24951 15.1082 8.33724 15.3294 8.33724H28.6628C28.8836 8.33688 29.0953 8.24901 29.2513 8.09277C29.4073 7.93653 29.4948 7.72469 29.4948 7.50391V2.50391C29.4948 2.28312 29.4073 2.07144 29.2513 1.9152C29.0953 1.75896 28.8836 1.67092 28.6628 1.67057H15.3294C15.1088 1.67128 14.8968 1.75936 14.7409 1.91553C14.5849 2.07169 14.4977 2.28323 14.4973 2.50391H14.4948ZM11.1614 25.8372C11.1612 23.6947 11.7955 21.6001 12.9856 19.8185C14.1757 18.0369 15.8682 16.648 17.8476 15.8277C19.827 15.0076 22.0053 14.7928 24.1068 15.2104C26.2082 15.6281 28.1384 16.6595 29.6536 18.1741C31.1689 19.6889 32.2013 21.6191 32.6197 23.7204C33.0382 25.8217 32.8234 27.9999 32.0038 29.9795C31.1844 31.9592 29.7968 33.6513 28.0156 34.8421C26.2344 36.0329 24.14 36.6688 21.9973 36.6693C19.1252 36.6661 16.3721 35.5236 14.3412 33.4927C12.3101 31.4617 11.1672 28.7081 11.164 25.836L11.1614 25.8372ZM12.8281 25.8372C12.8283 27.65 13.3664 29.4221 14.3737 30.9293C15.3809 32.4365 16.8121 33.6113 18.4869 34.3051C20.1618 34.9987 22.0045 35.1801 23.7825 34.8265C25.5605 34.4728 27.1946 33.6 28.4765 32.3181C29.7585 31.0364 30.6317 29.4035 30.9857 27.6255C31.3396 25.8476 31.1582 24.0045 30.4648 22.3296C29.7714 20.6547 28.5969 19.2228 27.0898 18.2153C25.5828 17.2079 23.8102 16.6697 21.9973 16.6693C19.5672 16.6724 17.2378 17.6392 15.5194 19.3576C13.8012 21.076 12.8339 23.4057 12.8307 25.836L12.8281 25.8372ZM27.8281 25.8372C27.8266 24.7953 27.5462 23.7728 27.0169 22.8755C26.4876 21.9781 25.7288 21.2385 24.8177 20.7332C24.7181 20.6824 24.6292 20.6121 24.5573 20.5265C24.4854 20.4408 24.4312 20.3416 24.3984 20.2347C24.3657 20.1277 24.3556 20.0152 24.3672 19.904C24.3788 19.7928 24.412 19.6851 24.4661 19.5872C24.5202 19.4893 24.5942 19.4033 24.6822 19.3345C24.7704 19.2656 24.8712 19.2151 24.9792 19.186C25.0872 19.1569 25.2004 19.1501 25.3112 19.1655C25.422 19.1809 25.5277 19.2184 25.6237 19.2759C26.7945 19.9256 27.7706 20.8765 28.4505 22.0301C29.1304 23.1837 29.4897 24.4981 29.4909 25.8372C29.4909 26.0583 29.4024 26.2703 29.2461 26.4265C29.0898 26.5829 28.8785 26.6705 28.6576 26.6705C28.4365 26.6705 28.224 26.5829 28.0677 26.4265C27.9114 26.2703 27.8242 26.0583 27.8242 25.8372H27.8281ZM38.3306 22.5039C38.3308 22.3429 38.377 22.1855 38.4648 22.0504C38.5526 21.9155 38.6782 21.8088 38.8254 21.7435C38.9726 21.6783 39.1353 21.6571 39.2942 21.6827C39.4532 21.7081 39.602 21.7792 39.7213 21.8872C39.8406 21.9953 39.9262 22.1356 39.9674 22.2913C40.0086 22.4471 40.0034 22.6113 39.953 22.7643C39.9028 22.9173 39.8092 23.0523 39.6836 23.1529C39.558 23.2537 39.405 23.3159 39.2448 23.3319C39.2164 23.3333 39.1885 23.3333 39.1601 23.3319C38.9409 23.3312 38.7304 23.2437 38.5754 23.0885C38.4206 22.9333 38.3337 22.7232 38.3333 22.5039H38.3306ZM21.9114 19.9972C21.6958 19.9861 21.4942 19.8912 21.3476 19.7328C21.201 19.5743 21.122 19.3649 21.1276 19.1491C21.1332 18.9332 21.2217 18.728 21.3762 18.5773C21.5309 18.4267 21.7385 18.3424 21.9544 18.3424C22.1702 18.3424 22.3778 18.4267 22.5325 18.5773C22.6872 18.728 22.7769 18.9332 22.7825 19.1491C22.7881 19.3649 22.7092 19.5743 22.5625 19.7328C22.4158 19.8912 22.213 19.9861 21.9973 19.9972C21.9706 20.0025 21.9446 20.0027 21.9153 20.0027L21.9114 19.9972ZM26.1628 5.83593V4.16927C26.1628 3.94825 26.25 3.73636 26.4062 3.58008C26.5625 3.4238 26.775 3.33593 26.9961 3.33593C27.217 3.33593 27.4296 3.4238 27.586 3.58008C27.7422 3.73636 27.8294 3.94825 27.8294 4.16927V5.83593C27.8294 6.05695 27.7422 6.26885 27.586 6.42513C27.4296 6.58141 27.217 6.66927 26.9961 6.66927C26.775 6.66927 26.5625 6.58141 26.4062 6.42513C26.25 6.26885 26.1628 6.05695 26.1628 5.83593Z" fill="#B1B1B1"/>
</svg>
